HIERARCHY
ROOT Hips
{
	OFFSET -14.64140 90.27770 -84.91600
	CHANNELS 6 Xposition Yposition Zposition Zrotation Xrotation Yrotation
	JOINT Spine
	{
		OFFSET 0.00000 13.20850 -1.60436
		CHANNELS 3 Zrotation Xrotation Yrotation
		JOINT Spine1
		{
			OFFSET 0.00000 8.61716 0.00000
			CHANNELS 3 Zrotation Xrotation Yrotation
			JOINT Spine2
			{
				OFFSET 0.00000 8.61717 0.00000
				CHANNELS 3 Zrotation Xrotation Yrotation
				JOINT Spine3
				{
					OFFSET 0.00000 8.61717 0.00000
					CHANNELS 3 Zrotation Xrotation Yrotation
					JOINT Neck
					{
						OFFSET 0.00000 11.07920 1.10792
						CHANNELS 3 Zrotation Xrotation Yrotation
						JOINT Neck1
						{
							OFFSET 0.00000 7.08032 0.00000
							CHANNELS 3 Zrotation Xrotation Yrotation
							JOINT Head
							{
								OFFSET 0.00000 7.08031 0.00000
								CHANNELS 3 Zrotation Xrotation Yrotation
								End site
								{
									OFFSET 0.00000 0.00000 0.00000
								}
							}
						}
					}
					JOINT RightShoulder
					{
						OFFSET -0.01000 7.91373 5.19711
						CHANNELS 3 Zrotation Xrotation Yrotation
						JOINT RightArm
						{
							OFFSET -18.41580 0.00000 0.00000
							CHANNELS 3 Zrotation Xrotation Yrotation
							JOINT RightForeArm
							{
								OFFSET -29.11090 0.00000 0.00000
								CHANNELS 3 Zrotation Xrotation Yrotation
								JOINT RightHand
								{
									OFFSET -24.65040 0.00000 0.00000
									CHANNELS 3 Zrotation Xrotation Yrotation
									JOINT RightHandThumb1
									{
										OFFSET -5.35114 -0.85590 3.97906
										CHANNELS 3 Zrotation Xrotation Yrotation
										JOINT RightHandThumb2
										{
											OFFSET -4.52789 0.00000 0.00000
											CHANNELS 3 Zrotation Xrotation Yrotation
											JOINT RightHandThumb3
											{
												OFFSET -2.46976 0.00000 0.00000
												CHANNELS 3 Zrotation Xrotation Yrotation
												End site
												{
													OFFSET 0.00000 0.00000 0.00000
												}
											}
										}
									}
									JOINT RightHandIndex1
									{
										OFFSET -14.26970 0.00000 2.88139
										CHANNELS 3 Zrotation Xrotation Yrotation
										JOINT RightHandIndex2
										{
											OFFSET -5.48836 0.00000 0.00000
											CHANNELS 3 Zrotation Xrotation Yrotation
											JOINT RightHandIndex3
											{
												OFFSET -3.01859 0.00000 0.00000
												CHANNELS 3 Zrotation Xrotation Yrotation
												End site
												{
													OFFSET 0.00000 0.00000 0.00000
												}
											}
										}
									}
									JOINT RightHandMiddle1
									{
										OFFSET -14.26970 0.00000 -0.09147
										CHANNELS 3 Zrotation Xrotation Yrotation
										JOINT RightHandMiddle2
										{
											OFFSET -6.17441 0.00000 0.00000
											CHANNELS 3 Zrotation Xrotation Yrotation
											JOINT RightHandMiddle3
											{
												OFFSET -3.56743 0.00000 0.00000
												CHANNELS 3 Zrotation Xrotation Yrotation
												End site
												{
													OFFSET 0.00000 0.00000 0.00000
												}
											}
										}
									}
									JOINT RightHandRing1
									{
										OFFSET -12.69180 0.00000 -3.06433
										CHANNELS 3 Zrotation Xrotation Yrotation
										JOINT RightHandRing2
										{
											OFFSET -5.62556 0.00000 0.00000
											CHANNELS 3 Zrotation Xrotation Yrotation
											JOINT RightHandRing3
											{
												OFFSET -3.56744 0.00000 0.00000
												CHANNELS 3 Zrotation Xrotation Yrotation
												End site
												{
													OFFSET 0.00000 0.00000 0.00000
												}
											}
										}
									}
									JOINT RightHandPinky1
									{
										OFFSET -11.11390 0.00000 -6.03719
										CHANNELS 3 Zrotation Xrotation Yrotation
										JOINT RightHandPinky2
										{
											OFFSET -4.52789 0.00000 0.00000
											CHANNELS 3 Zrotation Xrotation Yrotation
											JOINT RightHandPinky3
											{
												OFFSET -2.46976 0.00000 0.00000
												CHANNELS 3 Zrotation Xrotation Yrotation
												End site
												{
													OFFSET 0.00000 0.00000 0.00000
												}
											}
										}
									}
								}
							}
						}
					}
					JOINT LeftShoulder
					{
						OFFSET 0.01000 7.91373 5.19711
						CHANNELS 3 Zrotation Xrotation Yrotation
						JOINT LeftArm
						{
							OFFSET 18.41580 0.00000 0.00000
							CHANNELS 3 Zrotation Xrotation Yrotation
							JOINT LeftForeArm
							{
								OFFSET 29.11090 0.00000 0.00000
								CHANNELS 3 Zrotation Xrotation Yrotation
								JOINT LeftHand
								{
									OFFSET 24.65040 0.00000 0.00000
									CHANNELS 3 Zrotation Xrotation Yrotation
									JOINT LeftHandThumb1
									{
										OFFSET 5.35114 -0.85590 3.97906
										CHANNELS 3 Zrotation Xrotation Yrotation
										JOINT LeftHandThumb2
										{
											OFFSET 4.52789 0.00000 0.00000
											CHANNELS 3 Zrotation Xrotation Yrotation
											JOINT LeftHandThumb3
											{
												OFFSET 2.46977 0.00000 0.00000
												CHANNELS 3 Zrotation Xrotation Yrotation
												End site
												{
													OFFSET 0.00000 0.00000 0.00000
												}
											}
										}
									}
									JOINT LeftHandIndex1
									{
										OFFSET 14.26970 0.00000 2.88139
										CHANNELS 3 Zrotation Xrotation Yrotation
										JOINT LeftHandIndex2
										{
											OFFSET 5.48836 0.00000 0.00000
											CHANNELS 3 Zrotation Xrotation Yrotation
											JOINT LeftHandIndex3
											{
												OFFSET 3.01859 0.00000 0.00000
												CHANNELS 3 Zrotation Xrotation Yrotation
												End site
												{
													OFFSET 0.00000 0.00000 0.00000
												}
											}
										}
									}
									JOINT LeftHandMiddle1
									{
										OFFSET 14.26970 0.00000 -0.09147
										CHANNELS 3 Zrotation Xrotation Yrotation
										JOINT LeftHandMiddle2
										{
											OFFSET 6.17440 0.00000 0.00000
											CHANNELS 3 Zrotation Xrotation Yrotation
											JOINT LeftHandMiddle3
											{
												OFFSET 3.56744 0.00000 0.00000
												CHANNELS 3 Zrotation Xrotation Yrotation
												End site
												{
													OFFSET 0.00000 0.00000 0.00000
												}
											}
										}
									}
									JOINT LeftHandRing1
									{
										OFFSET 12.69180 0.00000 -3.06433
										CHANNELS 3 Zrotation Xrotation Yrotation
										JOINT LeftHandRing2
										{
											OFFSET 5.62556 0.00000 0.00000
											CHANNELS 3 Zrotation Xrotation Yrotation
											JOINT LeftHandRing3
											{
												OFFSET 3.56744 0.00000 0.00000
												CHANNELS 3 Zrotation Xrotation Yrotation
												End site
												{
													OFFSET 0.00000 0.00000 0.00000
												}
											}
										}
									}
									JOINT LeftHandPinky1
									{
										OFFSET 11.11390 0.00000 -6.03719
										CHANNELS 3 Zrotation Xrotation Yrotation
										JOINT LeftHandPinky2
										{
											OFFSET 4.52789 0.00000 0.00000
											CHANNELS 3 Zrotation Xrotation Yrotation
											JOINT LeftHandPinky3
											{
												OFFSET 2.46976 0.00000 0.00000
												CHANNELS 3 Zrotation Xrotation Yrotation
												End site
												{
													OFFSET 0.00000 0.00000 0.00000
												}
											}
										}
									}
								}
							}
						}
					}
					JOINT pCube4
					{
						OFFSET 0.00000 10.91090 1.10792
						CHANNELS 3 Zrotation Xrotation Yrotation
						End site
						{
							OFFSET 0.00000 0.00000 0.00000
						}
					}
				}
			}
		}
	}
	JOINT RightUpLeg
	{
		OFFSET -9.98441 0.00000 0.00000
		CHANNELS 3 Zrotation Xrotation Yrotation
		JOINT RightLeg
		{
			OFFSET 0.00000 -42.11790 0.00000
			CHANNELS 3 Zrotation Xrotation Yrotation
			JOINT RightFoot
			{
				OFFSET 0.00000 -45.00020 -0.00001
				CHANNELS 3 Zrotation Xrotation Yrotation
				JOINT RightForeFoot
				{
					OFFSET 0.00000 -3.74820 0.00000
					CHANNELS 3 Zrotation Xrotation Yrotation
					JOINT RightToeBase
					{
						OFFSET 0.00000 0.06325 14.43120
						CHANNELS 3 Zrotation Xrotation Yrotation
						End site
						{
							OFFSET 0.00000 0.00000 0.00000
						}
					}
				}
			}
		}
	}
	JOINT LeftUpLeg
	{
		OFFSET 9.98441 0.00000 0.00000
		CHANNELS 3 Zrotation Xrotation Yrotation
		JOINT LeftLeg
		{
			OFFSET 0.00000 -42.11800 0.00000
			CHANNELS 3 Zrotation Xrotation Yrotation
			JOINT LeftFoot
			{
				OFFSET 0.00000 -45.00070 0.00000
				CHANNELS 3 Zrotation Xrotation Yrotation
				JOINT LeftForeFoot
				{
					OFFSET 0.00000 -3.74824 0.00000
					CHANNELS 3 Zrotation Xrotation Yrotation
					JOINT LeftToeBase
					{
						OFFSET 0.00000 0.06325 14.43110
						CHANNELS 3 Zrotation Xrotation Yrotation
						End site
						{
							OFFSET 0.00000 0.00000 0.00000
						}
					}
				}
			}
		}
	}
}
MOTION
Frames: 4
Frame Time: 0.050000
-0.03519198510610276 0.018740398288583867 -0.007277391802352564 -0.029183525242652747 -0.015237345875534773 -0.014584241759471532 -1.9176455596498327 1.8394723078219783 -0.8578126220274642 -1.0300865457418629 3.92087015980031 0.3808962801794944 -1.198163772948916 -1.4778046242426592 -1.2030214568735684 0.7197451807060461 0.5981691230821822 -0.8120121104684082 0.15513129087300825 12.309453530390448 -1.5833466821300237 -0.10120104602521239 -1.0645330784225462 -5.249324387320676 0.48893340717743383 -16.907493567573262 -0.40071967697997823 -4.138519245042999 1.384291038742184 -14.937051897307098 71.01682572072792 27.34918410765741 3.694198205015938 -0.9336854934701592 5.367767264178494 39.406811409070635 22.851699215906248 -0.10602010708449999 -5.489015619250751 4.518108307661037 -0.1598356953631031 -1.6273700077932725 -0.029983793536086344 -0.038474192597526005 -56.19241001510442 -0.01583791891023887 -0.00693303666546966 -56.21272447178744 -38.7252787851826 -0.02178278255879248 -0.0023237839532771276 -0.028522531028351998 -0.03914481094751272 -0.03138276640547345 -0.012737676032202452 0.044095212840493024 -0.0025800038682756462 -36.65422079619123 0.0020494801772907457 -0.02745041314550132 0.014172865330924241 0.013242693418739125 0.010545727747875107 -0.025524526825802786 0.0042261294634202634 0.048513601575921494 -19.780605325664904 -0.016236732541962742 0.0006371815896306503 0.020280870997485705 0.04294047052775806 -0.021024552213157858 -0.031132715877502482 -0.018121935635678807 0.02182378084309126 24.024698933084288 0.016786427915216423 -0.008974528118636294 28.852161418956598 0.023706714893876726 0.013107699752197239 28.854053099091075 -0.023601964258638895 0.002032387050071686 4.891001243454621 1.250585013130395 12.969078251707652 -68.10382234946154 30.211667750339757 -9.085831089806101 -0.2505281253705993 -2.3987311692064335 -55.26870148888888 -19.023625200001167 -7.688846548362372 7.781310693870163 -0.5008785591262032 0.057125556054600866 -8.167562040036543 -0.017068075055504922 -0.0278299778928057 44.6155010515621 -0.03480078057706725 0.03929927619097398 44.51935326830253 12.469433169005491 -0.04159917865424909 -0.02085292201326278 -0.003024229721054654 0.0023382603696687925 -0.006789030732728213 -0.023602461663173584 0.015549769329460615 -0.0008636860443182237 11.0977934107158 0.003813220646511808 0.033094528394108695 -0.0207449788932949 -0.04519056859070862 -0.03938440877042388 0.04790726242516988 -0.04686140482300164 -0.0028983485212439744 4.8186174180110415 0.003851204061117657 -0.012560071811988231 0.0470597341760378 2.3746922190739607e-05 -0.011695989547832332 0.005519580308203416 0.03689938190047229 -0.04032317306505874 -5.6483926790729955 0.03144532433175437 0.016701074154339735 -6.7506660015653885 3.235699628949133e-05 0.023568870772234542 -6.733083389338085 -0.04740284110762702 0.01220140085323908 0.0386937964103732 0.03625435317683971 0.03285212257630301 8.041975132030345 3.5120947434501804 -19.25579850097092 0.012054375210191454 10.395213331331327 0.03333359378801377 -5.660557548474067 -15.67886260607283 3.1781614030819623 0.01006919910033381 0.04444379322387577 -0.049150775712507366 -0.008500896234972959 4.724858053468369 -0.03098508856422805 12.414412030199093 -8.238809213741693 6.8808636549327975 -0.00010794104383793395 46.37223371114259 -0.016251641912903483 -4.312661753631579 -14.788459211564438 -3.8123855442316166 0.030672206473762793 -0.032520847687294824 0.03531721791409887 0.0400276678847391 -10.747906806015033 -0.029306356909929672 
0.033221862330764594 0.020579247424368664 -0.041640693803235505 -0.026567985430556162 -0.017678779648623584 0.0225159475991903 -1.7998381789438131 1.756365951680396 -0.8681533814229545 -1.009837611684523 3.9667873260851083 0.33928697229167826 -1.1229555419863722 -1.3957194962677206 -1.2566242459607875 0.7558698705644822 0.5624807496711558 -0.8257114560991861 0.14323918285236875 12.194791488677506 -1.4427158955638548 -0.1395547024440344 -0.9694491011106785 -5.008309758958213 0.4935373940454664 -16.71643730075585 -0.37639290785997787 -3.9792264880331167 1.3434886356125082 -15.044611169091015 70.72483516567095 26.7584941592901 2.914504082107983 -0.8760462230242612 4.819337121389299 39.487709254361995 22.520532797038282 -0.09142357399417617 -5.368125025974956 4.528574630196662 -0.16618829729100143 -1.6049344299673807 -0.015533134147844265 -0.04820945314360837 -56.225892332693235 0.011779739422196525 0.029112370847131315 -56.22056873983202 -38.78612778481709 0.02027056651756846 -0.034683616620221104 0.04658411628048209 0.015418079209770548 -0.015061179988345108 0.03248940323901923 -0.04912481373794896 0.024455081703063757 -36.65709189455718 -0.012877471212493323 -0.011245429023635274 -0.02964002632923762 -0.014609753609847356 -0.01778710818292164 -0.0047659738943492845 0.02140493665295207 -0.01582954675629515 -19.726144222980842 0.03520248660824223 -0.04013914038283449 -0.015264189705840732 0.030405470305656414 0.039503548815666194 0.03317668533191523 -0.019390678837527573 0.0474612963476357 24.084923141229215 0.046268452838810384 -0.03172793223338269 28.819003626583505 0.04421840463578992 -0.023840577977574984 28.914681073758675 0.028915420400585708 -0.027768000019801935 4.72507309199201 1.1636815925003514 13.041352911036231 -68.1051684813764 30.372750995631275 -8.429446126569703 2.443229035711572 -4.746732795626321 -53.94334151397505 -18.36728790761163 -6.452993325525497 7.052862666305206 -0.5179612513409617 0.024356322569592213 -8.140317835513306 -0.008675681072036725 0.002400577904607169 44.52286024691427 0.0066745790784769376 0.0354810278330986 44.6074622567871 12.50432732761374 0.025088952734368723 -0.00272201516990018 0.009237772808005746 0.013286323060131592 0.01247407925514186 -0.032008146492799275 0.038077545159082744 -0.0027069476162061403 11.067511873907463 0.02500782418936997 0.03807269539002103 0.04766844388536693 -0.03060429836389916 -0.011191552478386184 -0.03795556388242157 -0.025028261602086467 -0.015516122036149105 4.757015845222131 0.016957404666057517 0.0031127519317068484 -0.0063526886609154105 -0.007843867345049278 -0.03616324346748968 -0.035404325310841506 0.030762730727564427 -0.018713149771817438 -5.614076557840153 0.045591275560386675 -0.002361172430708314 -6.7166185236649705 -0.0042237276025625685 0.017945460894600796 -6.734640256677626 0.009771476161073656 -0.0030665768668436204 -0.005793500379625496 -0.011072004427137102 -0.03173972785741578 8.052521059130436 3.468079320614237 -19.2393182132538 -0.04343590934252612 10.395933159883818 0.040435232895622494 -5.583127679076829 -15.63058534529053 3.233438493542333 -0.019420111285281417 -0.025980848304960526 -0.016755393944862213 -0.042918243435674186 4.676631741468542 0.004180765000127556 12.440312404553541 -8.27381974329728 6.867328161673139 -0.001963249736753395 46.4052811996116 -0.03228326875359976 -4.301244187833264 -14.707245642510985 -3.871038954316931 0.041549879688054 0.0332908327614139 -0.03205889026931437 0.039790952561058995 -10.773179385668259 0.04447049144224272 
0.040374728266978875 0.04734032360628806 -0.001806536843989022 0.010490080825616331 0.040167080117651355 0.010843595599263699 -1.8232542887588028 1.7046057171823876 -0.9149083317635858 -1.0562049856789821 3.975080692632165 0.3434712120686131 -1.1477657041311673 -1.4386891430021558 -1.2067813715884592 0.7946876956823138 0.545374143471236 -0.8360129532602603 0.17294441704075295 12.070998874688648 -1.5311991409114272 -0.053647307092858545 -1.0288161202601005 -5.126404904962757 0.49758715119627944 -16.588818713347912 -0.4417315094402292 -3.8625382073766 1.3648231416771897 -15.132737464232214 70.87873156117227 26.49042975355955 2.336603520241265 -0.7917117378217311 4.482382627840307 39.37972130621979 22.281002307090848 -0.09624917585104822 -5.155906226678097 4.563543230863418 -0.0862965303008493 -1.612046942635862 0.03670283242879539 -0.005295374762994359 -56.21014096475596 -0.046210945985506895 -0.04827739414089083 -56.23673951929291 -38.78113550251408 0.029154902890813465 -0.029241730640396958 0.020434954485502192 0.026394008589798183 0.03326146605733835 -0.0011374535691508177 -0.005494458899124209 0.03990814522369925 -36.648556706822085 0.005615857890671318 0.016746887827593517 -0.046644429534086464 0.018105468000415945 0.010275750026313478 0.01602946830597266 -0.038740996496499584 -0.025263475327143906 -19.755409932082323 -0.03054639480001119 -0.04955996312294155 0.03820493715521269 -0.043240913945071395 -0.021841154285433286 -0.025600882082845503 0.031023863816218925 -0.02203103389200777 24.09820107190103 -0.011953162619493843 0.003449379965961336 28.892097187956736 -0.032365834502275384 -0.030221945421457865 28.914984451011165 0.023096255796908483 -0.024902490600926787 4.435314900227502 1.151786518381308 13.08030101762833 -68.58602889495391 30.351931318155884 -7.243244501944931 3.920143488065452 -5.702080086480728 -51.43995978331972 -17.893602621424453 -5.161584949291931 6.172636751468117 -0.4728153332287545 0.04800889160009793 -8.152645536054447 0.043335319481788453 -0.04371619519423561 44.58097470706561 0.006614995976556809 -0.009518538801186562 44.55286476816619 12.45730636705997 -0.0459613932662394 0.008898214762134685 0.03955364663762254 0.020464947691684443 0.016127808819434625 0.0006479111667757687 0.023088436275606253 0.009363812294278578 11.06410283592557 0.03464851204890229 -0.027378073307056876 -0.047521006203551305 0.010049011514436816 -0.017750073664611704 -0.033576488098388355 -0.02876166911259443 -0.036635428049657456 4.784859272417462 0.028836758499857153 0.030947571030350812 -0.03884639686046705 -0.017287555828722812 0.0033428621101706498 0.03592257842004853 0.005278516624635121 0.01684843335420907 -5.588223967045313 0.01966855637845155 0.019863070012996184 -6.764596051030579 0.0056596440090646355 -0.02836160307761507 -6.759797432556256 0.02122866267885283 0.026111980176474297 0.03935854301813125 -0.017552566459204673 0.0180082457075491 8.064584211198504 3.5265012224102605 -19.212084986853018 0.015523602733535367 10.40368651066876 -0.004842226540132964 -5.595618155597722 -15.647828290056747 3.167669059374747 0.023755360143193523 -0.023416529360902348 0.006287921857173842 -0.002263248799341706 4.707100154773599 0.03252528848963296 12.469696008613134 -8.23524619835923 6.891828432591259 0.0015318318794878447 46.37850266496123 0.02169667939085337 -4.343993697033655 -14.709661098547071 -3.869658523259645 -0.004524118687537396 -0.04518935087761639 0.0015676122891099772 -0.0011758599791927729 -10.704624597755803 -0.020934184183675028 
0.0058665798930745755 0.0044326298784884395 -0.020748304953748516 0.049990304392603026 0.018670506345396198 -0.014469192657689749 -1.8332417290371459 1.6432458551579292 -0.8734398587981556 -1.001618331803976 3.894862458038791 0.3331137293563896 -1.1852451388221805 -1.3756156262295416 -1.0352670983916175 0.7051341927568168 0.5365380096381651 -0.8007643599037177 0.24480313395898443 11.948313258910286 -1.543424231687054 -0.03109940159345973 -1.006418876411675 -5.25998016726152 0.5716313590916269 -16.610615862459902 -0.39958457020288163 -3.790056390358203 1.3660517013866587 -15.230618244991453 71.20454024567194 26.43560970995972 1.8808256538644268 -1.0748288783027642 4.044094030054245 39.51124525985162 21.95070821733297 -0.11263300904620559 -4.965500159824443 4.537581600357448 -0.09886117173791026 -1.6118380759708988 0.043886656122935436 0.021820625931629447 -56.24672624425884 0.04212221630006042 -0.027781857891882502 -56.241167858851966 -38.72824463549296 0.019655421942468405 0.022683290326455656 0.017935428395405954 0.049792362692921886 -0.016729669365237818 0.02794851118949515 -0.002574752591729092 -0.027839141327092566 -36.659175694538916 0.013919577784093496 0.03919881961862188 0.00891196858529019 0.02346064547350499 0.032993715001243096 -0.04703657698304231 0.01720470747711944 0.04949715825609428 -19.7545422735934 -0.04910771701375166 -0.03225323247568227 0.0477808906175372 0.04084705867897558 -0.02480038231830253 -0.04600492348049523 -0.03710264020397531 -0.04022771669787961 24.051111267950663 0.02789934499007511 -0.022062098177928327 28.914364553094433 0.032633216615232316 -0.03200488650518888 28.815669453971072 -0.04740791035640671 0.026080503546163255 4.1318799967827715 1.0712200912679608 13.161921469313686 -69.2975040944214 30.02436124893923 -5.7594057298133805 3.966614356103275 -5.524169168216132 -48.304994280523395 -17.578676972207006 -3.9458987326171298 5.325826067281385 -0.4346318265301172 0.0660552399398648 -8.124177776022844 -0.017496708336489194 0.01628699651144422 44.53310378089202 0.04779895536387697 0.02188668503229984 44.61404649750665 12.490406016109201 0.013138313442655168 -0.018545956445990143 0.003883080653193539 0.015620037519910677 -0.012212537788099267 0.04272897077740699 0.0011474146057989809 -0.04699172988757282 11.077540096774886 -0.021067990619136404 0.006089773734607567 0.0222489847228896 -0.009785317045601979 0.013874879179108063 -0.0036084845743730174 -0.022838027168173285 0.0016976690553894024 4.760188310129484 0.018150863986776494 0.024387799556284635 0.032275307780831874 -0.010002470127847503 -0.007382466375734919 0.028173859371961027 -0.04931619433927831 0.010066775119037115 -5.6360898756081115 0.014111636526515176 0.010767137121398793 -6.746118565711103 -0.02863469006927367 -0.03041742124696715 -6.716304772315633 -0.01698308014616712 0.03447719667297436 0.033345737619265424 -0.0006421429597413564 0.04351658691942217 8.083983147898099 3.47288231906546 -19.233810519492472 -0.0026098702442703195 10.365770156405985 0.010519585620707584 -5.5858061998199675 -15.689298961281343 3.187396883847298 -0.045547992894546266 -0.01444453460647178 -0.0011636244766797352 0.004465628300563206 4.676346673931317 0.029632131239332057 12.484750848950256 -8.26010914252891 6.853908694950032 0.009356468383424053 46.34496389938162 -0.04535231718554153 -4.360033711341138 -14.736693933402496 -3.840037670216683 -0.021968729446107064 -0.03887609021516562 -0.0027075979102715135 0.039257822046792026 -10.778933640986077 -0.04909496197810685 
